<mxfile host="app.diagrams.net" modified="2023-01-29T08:17:04.381Z" agent="5.0 (Windows NT 10.0; Win64; x64) AppleWebKit/537.36 (KHTML, like Gecko) Chrome/109.0.0.0 Safari/537.36" etag="BMWnm0LuPvYPD3BdfCY8" version="20.7.4" type="github">
  <diagram id="C5RBs43oDa-KdzZeNtuy" name="Page-1">
    <mxGraphModel dx="548" dy="302" grid="1" gridSize="10" guides="1" tooltips="1" connect="1" arrows="1" fold="1" page="1" pageScale="1" pageWidth="827" pageHeight="1169" math="0" shadow="0">
      <root>
        <mxCell id="WIyWlLk6GJQsqaUBKTNV-0" />
        <mxCell id="WIyWlLk6GJQsqaUBKTNV-1" parent="WIyWlLk6GJQsqaUBKTNV-0" />
        <mxCell id="mPW7Y8VU2GV7ToMihj_J-0" value="SALES" style="rounded=0;whiteSpace=wrap;html=1;" vertex="1" parent="WIyWlLk6GJQsqaUBKTNV-1">
          <mxGeometry x="130" y="100" width="120" height="60" as="geometry" />
        </mxCell>
        <mxCell id="mPW7Y8VU2GV7ToMihj_J-1" value="OMS" style="rounded=0;whiteSpace=wrap;html=1;" vertex="1" parent="WIyWlLk6GJQsqaUBKTNV-1">
          <mxGeometry x="340" y="100" width="120" height="60" as="geometry" />
        </mxCell>
        <mxCell id="mPW7Y8VU2GV7ToMihj_J-2" value="BOMB" style="rounded=0;whiteSpace=wrap;html=1;" vertex="1" parent="WIyWlLk6GJQsqaUBKTNV-1">
          <mxGeometry x="310" y="390" width="120" height="60" as="geometry" />
        </mxCell>
        <mxCell id="mPW7Y8VU2GV7ToMihj_J-3" value="报价" style="ellipse;whiteSpace=wrap;html=1;" vertex="1" parent="WIyWlLk6GJQsqaUBKTNV-1">
          <mxGeometry x="160" y="230" width="120" height="80" as="geometry" />
        </mxCell>
        <mxCell id="mPW7Y8VU2GV7ToMihj_J-4" value="拆单" style="ellipse;whiteSpace=wrap;html=1;" vertex="1" parent="WIyWlLk6GJQsqaUBKTNV-1">
          <mxGeometry x="294" y="230" width="120" height="80" as="geometry" />
        </mxCell>
        <mxCell id="mPW7Y8VU2GV7ToMihj_J-5" value="取报价结果" style="ellipse;whiteSpace=wrap;html=1;" vertex="1" parent="WIyWlLk6GJQsqaUBKTNV-1">
          <mxGeometry x="440" y="220" width="120" height="80" as="geometry" />
        </mxCell>
        <mxCell id="mPW7Y8VU2GV7ToMihj_J-6" value="取拆单结果" style="ellipse;whiteSpace=wrap;html=1;" vertex="1" parent="WIyWlLk6GJQsqaUBKTNV-1">
          <mxGeometry x="580" y="230" width="120" height="80" as="geometry" />
        </mxCell>
        <mxCell id="mPW7Y8VU2GV7ToMihj_J-7" value="" style="endArrow=classic;html=1;rounded=0;exitX=0.667;exitY=1;exitDx=0;exitDy=0;exitPerimeter=0;entryX=0.5;entryY=0;entryDx=0;entryDy=0;" edge="1" parent="WIyWlLk6GJQsqaUBKTNV-1" source="mPW7Y8VU2GV7ToMihj_J-3" target="mPW7Y8VU2GV7ToMihj_J-2">
          <mxGeometry width="50" height="50" relative="1" as="geometry">
            <mxPoint x="330" y="340" as="sourcePoint" />
            <mxPoint x="420" y="280" as="targetPoint" />
          </mxGeometry>
        </mxCell>
        <mxCell id="mPW7Y8VU2GV7ToMihj_J-8" value="" style="endArrow=classic;html=1;rounded=0;exitX=0.552;exitY=1.049;exitDx=0;exitDy=0;exitPerimeter=0;entryX=0.585;entryY=0;entryDx=0;entryDy=0;entryPerimeter=0;" edge="1" parent="WIyWlLk6GJQsqaUBKTNV-1" source="mPW7Y8VU2GV7ToMihj_J-4" target="mPW7Y8VU2GV7ToMihj_J-2">
          <mxGeometry width="50" height="50" relative="1" as="geometry">
            <mxPoint x="250.03999999999996" y="320" as="sourcePoint" />
            <mxPoint x="369.9999999999999" y="390" as="targetPoint" />
          </mxGeometry>
        </mxCell>
        <mxCell id="mPW7Y8VU2GV7ToMihj_J-10" value="" style="endArrow=classic;html=1;rounded=0;entryX=0.419;entryY=1.049;entryDx=0;entryDy=0;entryPerimeter=0;" edge="1" parent="WIyWlLk6GJQsqaUBKTNV-1" source="mPW7Y8VU2GV7ToMihj_J-2" target="mPW7Y8VU2GV7ToMihj_J-5">
          <mxGeometry width="50" height="50" relative="1" as="geometry">
            <mxPoint x="270.03999999999996" y="340" as="sourcePoint" />
            <mxPoint x="389.9999999999999" y="410" as="targetPoint" />
          </mxGeometry>
        </mxCell>
        <mxCell id="mPW7Y8VU2GV7ToMihj_J-13" value="" style="endArrow=classic;html=1;rounded=0;entryX=0.331;entryY=0.993;entryDx=0;entryDy=0;entryPerimeter=0;exitX=0.798;exitY=-0.037;exitDx=0;exitDy=0;exitPerimeter=0;" edge="1" parent="WIyWlLk6GJQsqaUBKTNV-1" source="mPW7Y8VU2GV7ToMihj_J-2" target="mPW7Y8VU2GV7ToMihj_J-6">
          <mxGeometry width="50" height="50" relative="1" as="geometry">
            <mxPoint x="407" y="380" as="sourcePoint" />
            <mxPoint x="500.28" y="313.91999999999996" as="targetPoint" />
          </mxGeometry>
        </mxCell>
        <mxCell id="mPW7Y8VU2GV7ToMihj_J-14" value="K3" style="rounded=0;whiteSpace=wrap;html=1;" vertex="1" parent="WIyWlLk6GJQsqaUBKTNV-1">
          <mxGeometry x="707" y="50" width="120" height="60" as="geometry" />
        </mxCell>
        <mxCell id="mPW7Y8VU2GV7ToMihj_J-17" value="" style="endArrow=classic;html=1;rounded=0;entryX=0.5;entryY=1;entryDx=0;entryDy=0;exitX=0.5;exitY=0;exitDx=0;exitDy=0;" edge="1" parent="WIyWlLk6GJQsqaUBKTNV-1" source="mPW7Y8VU2GV7ToMihj_J-5" target="mPW7Y8VU2GV7ToMihj_J-1">
          <mxGeometry width="50" height="50" relative="1" as="geometry">
            <mxPoint x="411.0854583046174" y="400" as="sourcePoint" />
            <mxPoint x="500.28" y="313.91999999999996" as="targetPoint" />
          </mxGeometry>
        </mxCell>
        <mxCell id="mPW7Y8VU2GV7ToMihj_J-18" value="" style="endArrow=classic;html=1;rounded=0;entryX=0.566;entryY=1.047;entryDx=0;entryDy=0;exitX=0.5;exitY=0;exitDx=0;exitDy=0;entryPerimeter=0;" edge="1" parent="WIyWlLk6GJQsqaUBKTNV-1" source="mPW7Y8VU2GV7ToMihj_J-6" target="mPW7Y8VU2GV7ToMihj_J-1">
          <mxGeometry width="50" height="50" relative="1" as="geometry">
            <mxPoint x="510" y="230" as="sourcePoint" />
            <mxPoint x="410" y="170" as="targetPoint" />
          </mxGeometry>
        </mxCell>
        <mxCell id="mPW7Y8VU2GV7ToMihj_J-21" value="取报价结果" style="ellipse;whiteSpace=wrap;html=1;" vertex="1" parent="WIyWlLk6GJQsqaUBKTNV-1">
          <mxGeometry x="520" y="40" width="120" height="80" as="geometry" />
        </mxCell>
      </root>
    </mxGraphModel>
  </diagram>
</mxfile>
